<svg xmlns="http://www.w3.org/2000/svg">

<symbol id="more" width="40" height="40" viewBox="0 0 40 40" >
<path d="M4.125 4.125C2.99742 5.25258 2.99742 7.08075 4.125 8.20833L30.0833 34.1667H7.91667C6.30584 34.1667 5 35.4725 5 37.0833C5 38.6942 6.30584 40 7.91666 40H37.0833C38.6942 40 40 38.6942 40 37.0833V7.91667C40 6.30584 38.6942 5 37.0833 5C35.4725 5 34.1667 6.30584 34.1667 7.91666V30.0833L8.20833 4.125C7.08075 2.99741 5.25258 2.99742 4.125 4.125Z"/>
</symbol>

<symbol id="img-example" width="213" height="213" viewBox="0 0 213 213" fill="none">
<path fill-rule="evenodd" clip-rule="evenodd" d="M64.5036 41.3398C92.4516 38.9127 120.557 38.9127 148.505 41.3398L161.907 42.5113C168.136 43.0568 174.001 45.6815 178.558 49.9634C183.115 54.2453 186.1 59.9355 187.032 66.1188C191.057 92.8891 191.057 120.111 187.032 146.881C186.671 149.23 186.044 151.461 185.15 153.573C184.565 154.966 182.754 155.179 181.725 154.061L142.488 110.893C141.621 109.939 140.494 109.257 139.246 108.931C137.999 108.605 136.683 108.648 135.459 109.056L112.997 116.547L80.4165 79.8928C79.8138 79.2147 79.0789 78.667 78.2569 78.2833C77.4349 77.8996 76.5432 77.6879 75.6364 77.6613C74.7297 77.6347 73.827 77.7937 72.984 78.1286C72.1409 78.4635 71.3752 78.9672 70.7338 79.6088L27.1221 123.221C26.8258 123.525 26.4471 123.737 26.0324 123.829C25.6177 123.921 25.1851 123.891 24.7875 123.741C24.3899 123.591 24.0446 123.329 23.7941 122.986C23.5435 122.643 23.3985 122.234 23.3768 121.809C22.3273 103.203 23.1957 84.5383 25.9683 66.1099C26.9004 59.9266 29.885 54.2364 34.4421 49.9546C38.9993 45.6727 44.8641 43.0479 51.0935 42.5024L64.5036 41.3398ZM124.25 79.875C124.25 76.3443 125.653 72.9583 128.149 70.4617C130.646 67.9651 134.032 66.5625 137.563 66.5625C141.093 66.5625 144.479 67.9651 146.976 70.4617C149.473 72.9583 150.875 76.3443 150.875 79.875C150.875 83.4057 149.473 86.7918 146.976 89.2884C144.479 91.785 141.093 93.1875 137.563 93.1875C134.032 93.1875 130.646 91.785 128.149 89.2884C125.653 86.7918 124.25 83.4057 124.25 79.875Z" fill="#222222"/>
<path d="M26.279 142.888C26.0393 143.13 25.8586 143.424 25.7508 143.747C25.6431 144.07 25.6112 144.414 25.6577 144.751L25.9683 146.881C26.9004 153.065 29.885 158.755 34.4421 163.037C38.9993 167.319 44.8641 169.943 51.0935 170.489L64.4947 171.651C92.451 174.083 120.549 174.083 148.505 171.651L161.907 170.489C165.583 170.178 169.16 169.131 172.424 167.409C173.639 166.779 173.844 165.173 172.921 164.161L136.533 124.135C136.244 123.813 135.868 123.583 135.45 123.473C135.032 123.363 134.591 123.377 134.181 123.513L113.041 130.56C111.805 130.973 110.475 131.014 109.216 130.678C107.957 130.342 106.825 129.643 105.959 128.67L76.7156 95.7701C76.5143 95.5441 76.2688 95.3616 75.9943 95.2339C75.7198 95.1062 75.4221 95.0361 75.1195 95.0278C74.8169 95.0194 74.5158 95.0731 74.2347 95.1856C73.9536 95.298 73.6985 95.4667 73.4851 95.6814L26.279 142.888Z" fill="#222222"/>
</symbol>


<symbol id="arrow" width="13" height="20" viewBox="0 0 13 20" >
<path fill-rule="evenodd" clip-rule="evenodd" d="M0.948279 19.4956C1.56722 20.1455 2.59581 20.1706 3.24569 19.5517L11.7769 11.4267C12.099 11.12 12.2813 10.6947 12.2813 10.2499C12.2813 9.80521 12.099 9.37992 11.7769 9.07321L3.24569 0.948213C2.5958 0.329275 1.56722 0.354362 0.948277 1.00425C0.329337 1.65414 0.354425 2.68272 1.00431 3.30166L8.3 10.2499L1.00431 17.1982C0.354426 17.8172 0.329339 18.8457 0.948279 19.4956Z" />
</symbol>

<symbol id="arrow-down" width="12" height="8" viewBox="0 0 12 8">
<path fill-rule="evenodd" clip-rule="evenodd" d="M11.6897 0.650864C12.0896 1.03175 12.105 1.66473 11.7241 2.06466L6.72414 7.31466C6.53539 7.51284 6.27368 7.625 6 7.625C5.72632 7.625 5.4646 7.51284 5.27586 7.31466L0.275861 2.06466C-0.105025 1.66473 -0.0895863 1.03175 0.310344 0.650863C0.710275 0.269977 1.34325 0.285416 1.72414 0.685346L6 5.175L10.2759 0.685347C10.6567 0.285416 11.2897 0.269978 11.6897 0.650864Z" />
</symbol>

<symbol id="close" width="12" height="12" viewBox="0 0 12 12" >
<path d="M1 1L11 11"  stroke-linecap="round"/>
<path d="M11 1L0.999999 11"  stroke-linecap="round"/>
</symbol>

<symbol id="icon-yt" width="24" height="18" viewBox="0 0 24 18" >
<path d="M23.7955 5.1191C23.648 3.69625 23.3308 2.12333 22.1633 1.29674C21.2591 0.655726 20.0705 0.632029 18.9609 0.633345C16.6154 0.634661 14.2685 0.637299 11.923 0.638615C9.66693 0.641248 7.41089 0.64257 5.15485 0.645203C4.21242 0.646519 3.29632 0.572816 2.42102 0.98085C1.66944 1.33097 1.08108 1.99697 0.727014 2.73801C0.236056 3.76863 0.133395 4.93615 0.074164 6.07601C-0.0350841 8.15172 -0.0232379 10.2327 0.10707 12.3071C0.203156 13.8208 0.446656 15.4937 1.61679 16.4585C2.65399 17.3127 4.11765 17.3549 5.46285 17.3562C9.73273 17.3601 14.0039 17.3641 18.2752 17.3667C18.8227 17.368 19.394 17.3575 19.952 17.297C21.0498 17.1785 22.0962 16.8639 22.8017 16.0505C23.5138 15.2305 23.6967 14.0893 23.8047 13.0086C24.0679 10.3867 24.0653 7.73974 23.7955 5.1191ZM9.4537 12.6756V5.32444L15.8191 8.99937L9.4537 12.6756Z" fill="#B9B4C0"/>
</symbol>

<symbol id="icon-tg" height="20" viewBox="0 0 24 20">
<path d="M0.630534 9.12309C0.685649 9.09553 0.74079 9.06934 0.794528 9.04454C1.72874 8.61189 2.67535 8.20678 3.62058 7.80168C3.67156 7.80168 3.75697 7.74243 3.80519 7.72313C3.87822 7.69144 3.95126 7.66114 4.02429 7.62945C4.16484 7.56882 4.30539 7.50956 4.44455 7.44894C4.72564 7.32906 5.00534 7.2092 5.28642 7.08933C5.84723 6.84957 6.40802 6.60982 6.96882 6.36869C8.09042 5.88919 9.21343 5.40828 10.335 4.92877C11.4566 4.44927 12.5796 3.96839 13.7012 3.48888C14.8228 3.00938 15.9458 2.5285 17.0674 2.049C18.189 1.56949 19.312 1.08862 20.4336 0.609111C20.683 0.501635 20.953 0.341796 21.2203 0.294948C21.4449 0.254989 21.664 0.177839 21.89 0.135125C22.3185 0.0538294 22.7911 0.0207547 23.2017 0.198502C23.3437 0.260507 23.4746 0.347297 23.5834 0.45615C24.1043 0.971481 24.0312 1.81752 23.921 2.54229C23.1535 7.59363 22.386 12.6464 21.6172 17.6977C21.5124 18.3908 21.3691 19.1514 20.8221 19.5895C20.3591 19.9602 19.7005 20.0015 19.1287 19.8444C18.5569 19.686 18.0526 19.3539 17.5579 19.0273C15.5062 17.6687 13.4532 16.3101 11.4015 14.9515C10.9137 14.6291 10.3709 14.2075 10.3764 13.6219C10.3791 13.2691 10.5899 12.955 10.8049 12.6753C12.5879 10.3494 15.1604 8.75105 17.0743 6.53265C17.3443 6.21987 17.5565 5.65495 17.1859 5.47444C16.9654 5.36697 16.7119 5.513 16.5107 5.65216C13.9809 7.40897 11.4525 9.16716 8.92269 10.924C8.09734 11.4972 7.23202 12.0869 6.23719 12.2274C5.34707 12.3542 4.45145 12.1062 3.59027 11.8527C2.86826 11.6405 2.1476 11.4228 1.42972 11.1982C1.04804 11.0797 0.653962 10.9515 0.359093 10.6828C0.0642253 10.4141 -0.105232 9.96222 0.0725155 9.60397C0.184124 9.37938 0.400457 9.23746 0.627809 9.12171L0.630534 9.12309Z" fill="#B9B4C0"/>
</symbol>

<symbol id="icon-search" width="20" height="20" viewBox="0 0 20 20">
<path d="M11.457 0.0117188C16.1531 0.249987 19.8877 4.13339 19.8877 8.88867L19.876 9.3457C19.6379 14.0417 15.755 17.776 11 17.7764L10.542 17.7646C8.62534 17.6675 6.86966 16.9618 5.46191 15.8389L1.70703 19.5947C1.31654 19.9851 0.683463 19.9851 0.292969 19.5947C-0.0975157 19.2042 -0.0974361 18.5712 0.292969 18.1807L4.04785 14.4248C2.92524 13.0172 2.22021 11.262 2.12305 9.3457L2.11133 8.88867C2.11133 3.97985 6.09118 0 11 0L11.457 0.0117188ZM11 2C7.19575 2 4.11133 5.08442 4.11133 8.88867C4.11145 10.7094 4.81875 12.3642 5.97266 13.5957C6.0359 13.6352 6.09638 13.6813 6.15137 13.7363C6.20601 13.791 6.25167 13.8512 6.29102 13.9141C7.52288 15.0685 9.17863 15.7764 11 15.7764C14.8037 15.7759 17.8874 12.6925 17.8877 8.88867C17.8877 5.08468 14.8039 2.00042 11 2Z" fill="#242424"/>
</symbol>

<symbol id="menu" x="0px" y="0px" width="100" height="100" viewBox="0 0 50 50">
<path d="M 3 9 A 1.0001 1.0001 0 1 0 3 11 L 47 11 A 1.0001 1.0001 0 1 0 47 9 L 3 9 z M 3 24 A 1.0001 1.0001 0 1 0 3 26 L 47 26 A 1.0001 1.0001 0 1 0 47 24 L 3 24 z M 3 39 A 1.0001 1.0001 0 1 0 3 41 L 47 41 A 1.0001 1.0001 0 1 0 47 39 L 3 39 z"></path>
</symbol>

</svg>
